<mxfile host="drawio-plugin" modified="2024-08-19T10:40:48.898Z" agent="Mozilla/5.0 (Windows NT 10.0; Win64; x64) AppleWebKit/537.36 (KHTML, like Gecko) Chrome/122.0.0.0 Safari/537.36" etag="o4fADfTu2hJcRkkg2XbH" version="22.1.22" type="embed">
  <diagram name="Page-1" id="2YBvvXClWsGukQMizWep">
    <mxGraphModel dx="565" dy="799" grid="0" gridSize="10" guides="1" tooltips="1" connect="1" arrows="1" fold="1" page="1" pageScale="1" pageWidth="850" pageHeight="1100" background="#FCFCFC" math="0" shadow="0">
      <root>
        <mxCell id="0" />
        <mxCell id="1" parent="0" />
        <mxCell id="Zu7ZW6R091-W5tu3IjlT-26" value="Utilisateur" style="shape=umlLifeline;perimeter=lifelinePerimeter;whiteSpace=wrap;html=1;container=0;dropTarget=0;collapsible=0;recursiveResize=0;outlineConnect=0;portConstraint=eastwest;newEdgeStyle={&quot;edgeStyle&quot;:&quot;elbowEdgeStyle&quot;,&quot;elbow&quot;:&quot;vertical&quot;,&quot;curved&quot;:0,&quot;rounded&quot;:0};" parent="1" vertex="1">
          <mxGeometry x="120" y="90" width="100" height="672" as="geometry" />
        </mxCell>
        <mxCell id="Zu7ZW6R091-W5tu3IjlT-27" value="Server" style="shape=umlLifeline;perimeter=lifelinePerimeter;whiteSpace=wrap;html=1;container=0;dropTarget=0;collapsible=0;recursiveResize=0;outlineConnect=0;portConstraint=eastwest;newEdgeStyle={&quot;edgeStyle&quot;:&quot;elbowEdgeStyle&quot;,&quot;elbow&quot;:&quot;vertical&quot;,&quot;curved&quot;:0,&quot;rounded&quot;:0};" parent="1" vertex="1">
          <mxGeometry x="300" y="90" width="100" height="677" as="geometry" />
        </mxCell>
        <mxCell id="Zu7ZW6R091-W5tu3IjlT-28" value="" style="html=1;verticalAlign=bottom;endArrow=block;edgeStyle=elbowEdgeStyle;elbow=vertical;curved=0;rounded=0;" parent="1" edge="1">
          <mxGeometry relative="1" as="geometry">
            <mxPoint x="175" y="169.9999999999999" as="sourcePoint" />
            <Array as="points">
              <mxPoint x="260" y="170" />
            </Array>
            <mxPoint x="345" y="170" as="targetPoint" />
          </mxGeometry>
        </mxCell>
        <mxCell id="Zu7ZW6R091-W5tu3IjlT-29" value="Clique sur lien du tricks" style="text;html=1;align=center;verticalAlign=middle;resizable=0;points=[];autosize=1;strokeColor=none;fillColor=none;" parent="1" vertex="1">
          <mxGeometry x="190" y="140" width="142" height="26" as="geometry" />
        </mxCell>
        <mxCell id="Zu7ZW6R091-W5tu3IjlT-30" value="SD: Laisser un commentaire" style="shape=umlFrame;whiteSpace=wrap;html=1;pointerEvents=0;recursiveResize=0;container=1;collapsible=0;width=160;" parent="1" vertex="1">
          <mxGeometry x="10" y="10" width="740" height="799" as="geometry" />
        </mxCell>
        <mxCell id="Zu7ZW6R091-W5tu3IjlT-31" value="SGBD" style="shape=umlLifeline;perimeter=lifelinePerimeter;whiteSpace=wrap;html=1;container=0;dropTarget=0;collapsible=0;recursiveResize=0;outlineConnect=0;portConstraint=eastwest;newEdgeStyle={&quot;edgeStyle&quot;:&quot;elbowEdgeStyle&quot;,&quot;elbow&quot;:&quot;vertical&quot;,&quot;curved&quot;:0,&quot;rounded&quot;:0};" parent="Zu7ZW6R091-W5tu3IjlT-30" vertex="1">
          <mxGeometry x="470" y="80" width="100" height="674" as="geometry" />
        </mxCell>
        <mxCell id="Zu7ZW6R091-W5tu3IjlT-32" value="Affiche la page du tricks" style="html=1;verticalAlign=bottom;endArrow=block;edgeStyle=elbowEdgeStyle;elbow=vertical;curved=0;rounded=0;exitX=0;exitY=0.75;exitDx=0;exitDy=0;" parent="Zu7ZW6R091-W5tu3IjlT-30" edge="1">
          <mxGeometry relative="1" as="geometry">
            <mxPoint x="332" y="209" as="sourcePoint" />
            <Array as="points">
              <mxPoint x="254.5" y="214" />
            </Array>
            <mxPoint x="162" y="214" as="targetPoint" />
            <mxPoint as="offset" />
          </mxGeometry>
        </mxCell>
        <mxCell id="Zu7ZW6R091-W5tu3IjlT-33" value="" style="rounded=0;dashed=0;" parent="Zu7ZW6R091-W5tu3IjlT-30" vertex="1">
          <mxGeometry x="335" y="150" width="10" height="290" as="geometry" />
        </mxCell>
        <mxCell id="Zu7ZW6R091-W5tu3IjlT-34" value="alt" style="shape=umlFrame;whiteSpace=wrap;html=1;pointerEvents=0;recursiveResize=0;container=1;collapsible=0;width=60;height=30;" parent="Zu7ZW6R091-W5tu3IjlT-30" vertex="1">
          <mxGeometry x="68" y="276" width="651" height="482" as="geometry" />
        </mxCell>
        <mxCell id="Zu7ZW6R091-W5tu3IjlT-35" value="[&amp;nbsp;Utilisateur non connecté ]" style="text;html=1;align=center;verticalAlign=middle;resizable=0;points=[];autosize=1;strokeColor=none;fillColor=none;" parent="Zu7ZW6R091-W5tu3IjlT-34" vertex="1">
          <mxGeometry x="91" y="12" width="160" height="26" as="geometry" />
        </mxCell>
        <mxCell id="Zu7ZW6R091-W5tu3IjlT-36" value="" style="endArrow=none;dashed=1;html=1;rounded=0;exitX=0;exitY=0.594;exitDx=0;exitDy=0;exitPerimeter=0;entryX=0.998;entryY=0.594;entryDx=0;entryDy=0;entryPerimeter=0;" parent="Zu7ZW6R091-W5tu3IjlT-34" edge="1">
          <mxGeometry width="50" height="50" relative="1" as="geometry">
            <mxPoint x="1.06" y="89.49999999999997" as="sourcePoint" />
            <mxPoint x="530" y="89.49999999999997" as="targetPoint" />
          </mxGeometry>
        </mxCell>
        <mxCell id="Zu7ZW6R091-W5tu3IjlT-39" value="[&amp;nbsp; Utilisateur connecté ]" style="text;html=1;align=center;verticalAlign=middle;resizable=0;points=[];autosize=1;strokeColor=none;fillColor=none;" parent="Zu7ZW6R091-W5tu3IjlT-34" vertex="1">
          <mxGeometry x="100" y="92" width="140" height="26" as="geometry" />
        </mxCell>
        <mxCell id="Zu7ZW6R091-W5tu3IjlT-48" value="" style="rounded=0;dashed=0;fillColor=#18141D;" parent="Zu7ZW6R091-W5tu3IjlT-34" vertex="1">
          <mxGeometry x="88" y="144" width="10" height="69" as="geometry" />
        </mxCell>
        <mxCell id="Zu7ZW6R091-W5tu3IjlT-51" value="Affiche une demande &lt;br&gt;de connexion" style="html=1;verticalAlign=bottom;endArrow=block;edgeStyle=elbowEdgeStyle;elbow=vertical;curved=0;rounded=0;exitX=0;exitY=0.75;exitDx=0;exitDy=0;" parent="Zu7ZW6R091-W5tu3IjlT-34" edge="1">
          <mxGeometry relative="1" as="geometry">
            <mxPoint x="265" y="66" as="sourcePoint" />
            <Array as="points">
              <mxPoint x="187.5" y="71" />
            </Array>
            <mxPoint x="95" y="71" as="targetPoint" />
            <mxPoint as="offset" />
          </mxGeometry>
        </mxCell>
        <mxCell id="Zu7ZW6R091-W5tu3IjlT-52" value="Affiche le formulaire&lt;br&gt;&amp;nbsp;du commentaire" style="html=1;verticalAlign=bottom;endArrow=block;edgeStyle=elbowEdgeStyle;elbow=vertical;curved=0;rounded=0;exitX=0;exitY=0.75;exitDx=0;exitDy=0;" parent="Zu7ZW6R091-W5tu3IjlT-34" edge="1">
          <mxGeometry relative="1" as="geometry">
            <mxPoint x="270" y="151" as="sourcePoint" />
            <Array as="points">
              <mxPoint x="192.5" y="156" />
            </Array>
            <mxPoint x="100" y="156" as="targetPoint" />
            <mxPoint as="offset" />
          </mxGeometry>
        </mxCell>
        <mxCell id="Zu7ZW6R091-W5tu3IjlT-71" value="alt" style="shape=umlFrame;whiteSpace=wrap;html=1;pointerEvents=0;recursiveResize=0;container=1;collapsible=0;width=60;height=30;" parent="Zu7ZW6R091-W5tu3IjlT-34" vertex="1">
          <mxGeometry x="10" y="222" width="628" height="214" as="geometry" />
        </mxCell>
        <mxCell id="Zu7ZW6R091-W5tu3IjlT-72" value="[&amp;nbsp; Informations incorrecte ]" style="text;html=1;align=center;verticalAlign=middle;resizable=0;points=[];autosize=1;strokeColor=none;fillColor=none;" parent="Zu7ZW6R091-W5tu3IjlT-71" vertex="1">
          <mxGeometry x="90" y="10" width="160" height="30" as="geometry" />
        </mxCell>
        <mxCell id="Zu7ZW6R091-W5tu3IjlT-73" value="" style="endArrow=none;dashed=1;html=1;rounded=0;exitX=0;exitY=0.594;exitDx=0;exitDy=0;exitPerimeter=0;entryX=1.003;entryY=0.402;entryDx=0;entryDy=0;entryPerimeter=0;" parent="Zu7ZW6R091-W5tu3IjlT-71" target="Zu7ZW6R091-W5tu3IjlT-71" edge="1">
          <mxGeometry width="50" height="50" relative="1" as="geometry">
            <mxPoint x="1.06" y="89.49999999999997" as="sourcePoint" />
            <mxPoint x="530" y="89.49999999999997" as="targetPoint" />
          </mxGeometry>
        </mxCell>
        <mxCell id="Zu7ZW6R091-W5tu3IjlT-74" value="Message erreur" style="html=1;verticalAlign=bottom;endArrow=open;dashed=1;endSize=8;edgeStyle=elbowEdgeStyle;elbow=vertical;curved=0;rounded=0;entryX=1.155;entryY=0.851;entryDx=0;entryDy=0;entryPerimeter=0;" parent="Zu7ZW6R091-W5tu3IjlT-71" edge="1">
          <mxGeometry relative="1" as="geometry">
            <mxPoint x="90" y="59.99999999999994" as="targetPoint" />
            <Array as="points">
              <mxPoint x="170.95000000000005" y="60.43000000000001" />
            </Array>
            <mxPoint x="262.95000000000005" y="60.43000000000001" as="sourcePoint" />
          </mxGeometry>
        </mxCell>
        <mxCell id="Zu7ZW6R091-W5tu3IjlT-75" value="Affiche la confirmation" style="html=1;verticalAlign=bottom;endArrow=open;dashed=1;endSize=8;edgeStyle=elbowEdgeStyle;elbow=vertical;curved=0;rounded=0;" parent="Zu7ZW6R091-W5tu3IjlT-71" target="Zu7ZW6R091-W5tu3IjlT-85" edge="1">
          <mxGeometry relative="1" as="geometry">
            <mxPoint x="156" y="162" as="targetPoint" />
            <Array as="points">
              <mxPoint x="170.95000000000005" y="159.43" />
            </Array>
            <mxPoint x="262.95000000000005" y="159.43" as="sourcePoint" />
          </mxGeometry>
        </mxCell>
        <mxCell id="Zu7ZW6R091-W5tu3IjlT-76" value="[&amp;nbsp; Informations correcte ]" style="text;html=1;align=center;verticalAlign=middle;resizable=0;points=[];autosize=1;strokeColor=none;fillColor=none;" parent="Zu7ZW6R091-W5tu3IjlT-71" vertex="1">
          <mxGeometry x="95" y="90" width="150" height="30" as="geometry" />
        </mxCell>
        <mxCell id="Zu7ZW6R091-W5tu3IjlT-77" value="Enregistrement" style="html=1;verticalAlign=bottom;endArrow=block;edgeStyle=elbowEdgeStyle;elbow=vertical;curved=0;rounded=0;" parent="Zu7ZW6R091-W5tu3IjlT-71" edge="1">
          <mxGeometry relative="1" as="geometry">
            <mxPoint x="270" y="115" as="sourcePoint" />
            <Array as="points">
              <mxPoint x="380" y="115" />
            </Array>
            <mxPoint x="429" y="115" as="targetPoint" />
            <mxPoint as="offset" />
          </mxGeometry>
        </mxCell>
        <mxCell id="Zu7ZW6R091-W5tu3IjlT-78" value="Réponse SGBD" style="html=1;verticalAlign=bottom;endArrow=block;elbow=vertical;rounded=0;exitX=0;exitY=0.75;exitDx=0;exitDy=0;" parent="Zu7ZW6R091-W5tu3IjlT-71" edge="1">
          <mxGeometry relative="1" as="geometry">
            <mxPoint x="428" y="150" as="sourcePoint" />
            <mxPoint x="268" y="150" as="targetPoint" />
            <mxPoint as="offset" />
          </mxGeometry>
        </mxCell>
        <mxCell id="Zu7ZW6R091-W5tu3IjlT-79" value="" style="rounded=0;dashed=0;fillColor=#18141D;" parent="Zu7ZW6R091-W5tu3IjlT-71" vertex="1">
          <mxGeometry x="437" y="103" width="10" height="60" as="geometry" />
        </mxCell>
        <mxCell id="Zu7ZW6R091-W5tu3IjlT-85" value="" style="rounded=0;dashed=0;fillColor=#18141D;" parent="Zu7ZW6R091-W5tu3IjlT-71" vertex="1">
          <mxGeometry x="77" y="138" width="10" height="44" as="geometry" />
        </mxCell>
        <mxCell id="Zu7ZW6R091-W5tu3IjlT-91" value="" style="rounded=0;dashed=0;fillColor=#18141D;" parent="Zu7ZW6R091-W5tu3IjlT-71" vertex="1">
          <mxGeometry x="257" y="103" width="10" height="68" as="geometry" />
        </mxCell>
        <mxCell id="Zu7ZW6R091-W5tu3IjlT-86" value="" style="html=1;verticalAlign=bottom;endArrow=block;edgeStyle=elbowEdgeStyle;elbow=vertical;curved=0;rounded=0;" parent="Zu7ZW6R091-W5tu3IjlT-34" edge="1">
          <mxGeometry relative="1" as="geometry">
            <mxPoint x="100" y="206.9999999999999" as="sourcePoint" />
            <Array as="points">
              <mxPoint x="185" y="207" />
            </Array>
            <mxPoint x="270" y="207" as="targetPoint" />
          </mxGeometry>
        </mxCell>
        <mxCell id="Zu7ZW6R091-W5tu3IjlT-87" value="Remplit le formulaire" style="text;html=1;align=center;verticalAlign=middle;resizable=0;points=[];autosize=1;strokeColor=none;fillColor=none;" parent="Zu7ZW6R091-W5tu3IjlT-34" vertex="1">
          <mxGeometry x="122" y="177" width="128" height="26" as="geometry" />
        </mxCell>
        <mxCell id="Zu7ZW6R091-W5tu3IjlT-88" value="" style="rounded=0;dashed=0;fillColor=#18141D;" parent="Zu7ZW6R091-W5tu3IjlT-34" vertex="1">
          <mxGeometry x="268" y="177" width="10" height="122" as="geometry" />
        </mxCell>
      </root>
    </mxGraphModel>
  </diagram>
</mxfile>
